<?xml version="1.0" encoding="utf-8" standalone="no"?>
<!DOCTYPE svg PUBLIC "-//W3C//DTD SVG 1.1//EN"
  "http://www.w3.org/Graphics/SVG/1.1/DTD/svg11.dtd">
<svg height="270.464766pt" version="1.1" viewBox="0 0 392.025469 270.464766" width="392.025469pt" xmlns="http://www.w3.org/2000/svg" xmlns:xlink="http://www.w3.org/1999/xlink">
 <metadata>
  <rdf:RDF xmlns:cc="http://creativecommons.org/ns#" xmlns:dc="http://purl.org/dc/elements/1.1/" xmlns:rdf="http://www.w3.org/1999/02/22-rdf-syntax-ns#">
   <cc:Work>
    <dc:type rdf:resource="http://purl.org/dc/dcmitype/StillImage"/>
    <dc:date>2021-11-10T12:49:25.017584</dc:date>
    <dc:format>image/svg+xml</dc:format>
    <dc:creator>
     <cc:Agent>
      <dc:title>Matplotlib v3.4.3, https://matplotlib.org/</dc:title>
     </cc:Agent>
    </dc:creator>
   </cc:Work>
  </rdf:RDF>
 </metadata>
 <defs>
  <style type="text/css">*{stroke-linecap:butt;stroke-linejoin:round;}</style>
 </defs>
 <g id="figure_1">
  <g id="patch_1">
   <path d="M 0 270.464766 
L 392.025469 270.464766 
L 392.025469 0 
L 0 0 
z
" style="fill:#ffffff;"/>
  </g>
  <g id="axes_1">
   <g id="patch_2">
    <path d="M 50.025469 228.576797 
L 202.207287 228.576797 
L 202.207287 11.136797 
L 50.025469 11.136797 
z
" style="fill:#ffffff;"/>
   </g>
   <g id="matplotlib.axis_1">
    <g id="xtick_1">
     <g id="line2d_1">
      <defs>
       <path d="M 0 0 
L 0 6 
" id="m926b814aa9" style="stroke:#262626;stroke-width:1.25;"/>
      </defs>
      <g>
       <use style="fill:#262626;stroke:#262626;stroke-width:1.25;" x="92.110042" xlink:href="#m926b814aa9" y="228.576797"/>
      </g>
     </g>
     <g id="text_1">
      <!-- 260 -->
      <g style="fill:#262626;" transform="translate(82.934495 245.950391)scale(0.11 -0.11)">
       <defs>
        <path d="M 3222 541 
L 3222 0 
L 194 0 
Q 188 203 259 391 
Q 375 700 629 1000 
Q 884 1300 1366 1694 
Q 2113 2306 2375 2664 
Q 2638 3022 2638 3341 
Q 2638 3675 2398 3904 
Q 2159 4134 1775 4134 
Q 1369 4134 1125 3890 
Q 881 3647 878 3216 
L 300 3275 
Q 359 3922 746 4261 
Q 1134 4600 1788 4600 
Q 2447 4600 2831 4234 
Q 3216 3869 3216 3328 
Q 3216 3053 3103 2787 
Q 2991 2522 2730 2228 
Q 2469 1934 1863 1422 
Q 1356 997 1212 845 
Q 1069 694 975 541 
L 3222 541 
z
" id="ArialMT-32" transform="scale(0.015625)"/>
        <path d="M 3184 3459 
L 2625 3416 
Q 2550 3747 2413 3897 
Q 2184 4138 1850 4138 
Q 1581 4138 1378 3988 
Q 1113 3794 959 3422 
Q 806 3050 800 2363 
Q 1003 2672 1297 2822 
Q 1591 2972 1913 2972 
Q 2475 2972 2870 2558 
Q 3266 2144 3266 1488 
Q 3266 1056 3080 686 
Q 2894 316 2569 119 
Q 2244 -78 1831 -78 
Q 1128 -78 684 439 
Q 241 956 241 2144 
Q 241 3472 731 4075 
Q 1159 4600 1884 4600 
Q 2425 4600 2770 4297 
Q 3116 3994 3184 3459 
z
M 888 1484 
Q 888 1194 1011 928 
Q 1134 663 1356 523 
Q 1578 384 1822 384 
Q 2178 384 2434 671 
Q 2691 959 2691 1453 
Q 2691 1928 2437 2201 
Q 2184 2475 1800 2475 
Q 1419 2475 1153 2201 
Q 888 1928 888 1484 
z
" id="ArialMT-36" transform="scale(0.015625)"/>
        <path d="M 266 2259 
Q 266 3072 433 3567 
Q 600 4063 929 4331 
Q 1259 4600 1759 4600 
Q 2128 4600 2406 4451 
Q 2684 4303 2865 4023 
Q 3047 3744 3150 3342 
Q 3253 2941 3253 2259 
Q 3253 1453 3087 958 
Q 2922 463 2592 192 
Q 2263 -78 1759 -78 
Q 1097 -78 719 397 
Q 266 969 266 2259 
z
M 844 2259 
Q 844 1131 1108 757 
Q 1372 384 1759 384 
Q 2147 384 2411 759 
Q 2675 1134 2675 2259 
Q 2675 3391 2411 3762 
Q 2147 4134 1753 4134 
Q 1366 4134 1134 3806 
Q 844 3388 844 2259 
z
" id="ArialMT-30" transform="scale(0.015625)"/>
       </defs>
       <use xlink:href="#ArialMT-32"/>
       <use x="55.615234" xlink:href="#ArialMT-36"/>
       <use x="111.230469" xlink:href="#ArialMT-30"/>
      </g>
     </g>
    </g>
    <g id="xtick_2">
     <g id="line2d_2">
      <g>
       <use style="fill:#262626;stroke:#262626;stroke-width:1.25;" x="135.048339" xlink:href="#m926b814aa9" y="228.576797"/>
      </g>
     </g>
     <g id="text_2">
      <!-- 265 -->
      <g style="fill:#262626;" transform="translate(125.872792 245.950391)scale(0.11 -0.11)">
       <defs>
        <path d="M 266 1200 
L 856 1250 
Q 922 819 1161 601 
Q 1400 384 1738 384 
Q 2144 384 2425 690 
Q 2706 997 2706 1503 
Q 2706 1984 2436 2262 
Q 2166 2541 1728 2541 
Q 1456 2541 1237 2417 
Q 1019 2294 894 2097 
L 366 2166 
L 809 4519 
L 3088 4519 
L 3088 3981 
L 1259 3981 
L 1013 2750 
Q 1425 3038 1878 3038 
Q 2478 3038 2890 2622 
Q 3303 2206 3303 1553 
Q 3303 931 2941 478 
Q 2500 -78 1738 -78 
Q 1113 -78 717 272 
Q 322 622 266 1200 
z
" id="ArialMT-35" transform="scale(0.015625)"/>
       </defs>
       <use xlink:href="#ArialMT-32"/>
       <use x="55.615234" xlink:href="#ArialMT-36"/>
       <use x="111.230469" xlink:href="#ArialMT-35"/>
      </g>
     </g>
    </g>
    <g id="xtick_3">
     <g id="line2d_3">
      <g>
       <use style="fill:#262626;stroke:#262626;stroke-width:1.25;" x="177.986635" xlink:href="#m926b814aa9" y="228.576797"/>
      </g>
     </g>
     <g id="text_3">
      <!-- 270 -->
      <g style="fill:#262626;" transform="translate(168.811088 245.950391)scale(0.11 -0.11)">
       <defs>
        <path d="M 303 3981 
L 303 4522 
L 3269 4522 
L 3269 4084 
Q 2831 3619 2401 2847 
Q 1972 2075 1738 1259 
Q 1569 684 1522 0 
L 944 0 
Q 953 541 1156 1306 
Q 1359 2072 1739 2783 
Q 2119 3494 2547 3981 
L 303 3981 
z
" id="ArialMT-37" transform="scale(0.015625)"/>
       </defs>
       <use xlink:href="#ArialMT-32"/>
       <use x="55.615234" xlink:href="#ArialMT-37"/>
       <use x="111.230469" xlink:href="#ArialMT-30"/>
      </g>
     </g>
    </g>
    <g id="text_4">
     <!-- DOXY -->
     <g style="fill:#262626;" transform="translate(109.112003 260.726016)scale(0.12 -0.12)">
      <defs>
       <path d="M 494 0 
L 494 4581 
L 2072 4581 
Q 2606 4581 2888 4516 
Q 3281 4425 3559 4188 
Q 3922 3881 4101 3404 
Q 4281 2928 4281 2316 
Q 4281 1794 4159 1391 
Q 4038 988 3847 723 
Q 3656 459 3429 307 
Q 3203 156 2883 78 
Q 2563 0 2147 0 
L 494 0 
z
M 1100 541 
L 2078 541 
Q 2531 541 2789 625 
Q 3047 709 3200 863 
Q 3416 1078 3536 1442 
Q 3656 1806 3656 2325 
Q 3656 3044 3420 3430 
Q 3184 3816 2847 3947 
Q 2603 4041 2063 4041 
L 1100 4041 
L 1100 541 
z
" id="ArialMT-44" transform="scale(0.015625)"/>
       <path d="M 309 2231 
Q 309 3372 921 4017 
Q 1534 4663 2503 4663 
Q 3138 4663 3647 4359 
Q 4156 4056 4423 3514 
Q 4691 2972 4691 2284 
Q 4691 1588 4409 1038 
Q 4128 488 3612 205 
Q 3097 -78 2500 -78 
Q 1853 -78 1343 234 
Q 834 547 571 1087 
Q 309 1628 309 2231 
z
M 934 2222 
Q 934 1394 1379 917 
Q 1825 441 2497 441 
Q 3181 441 3623 922 
Q 4066 1403 4066 2288 
Q 4066 2847 3877 3264 
Q 3688 3681 3323 3911 
Q 2959 4141 2506 4141 
Q 1863 4141 1398 3698 
Q 934 3256 934 2222 
z
" id="ArialMT-4f" transform="scale(0.015625)"/>
       <path d="M 28 0 
L 1800 2388 
L 238 4581 
L 959 4581 
L 1791 3406 
Q 2050 3041 2159 2844 
Q 2313 3094 2522 3366 
L 3444 4581 
L 4103 4581 
L 2494 2422 
L 4228 0 
L 3478 0 
L 2325 1634 
Q 2228 1775 2125 1941 
Q 1972 1691 1906 1597 
L 756 0 
L 28 0 
z
" id="ArialMT-58" transform="scale(0.015625)"/>
       <path d="M 1784 0 
L 1784 1941 
L 19 4581 
L 756 4581 
L 1659 3200 
Q 1909 2813 2125 2425 
Q 2331 2784 2625 3234 
L 3513 4581 
L 4219 4581 
L 2391 1941 
L 2391 0 
L 1784 0 
z
" id="ArialMT-59" transform="scale(0.015625)"/>
      </defs>
      <use xlink:href="#ArialMT-44"/>
      <use x="72.216797" xlink:href="#ArialMT-4f"/>
      <use x="150" xlink:href="#ArialMT-58"/>
      <use x="216.699219" xlink:href="#ArialMT-59"/>
     </g>
    </g>
   </g>
   <g id="matplotlib.axis_2">
    <g id="ytick_1">
     <g id="line2d_4">
      <defs>
       <path d="M 0 0 
L -6 0 
" id="m3a158243a1" style="stroke:#262626;stroke-width:1.25;"/>
      </defs>
      <g>
       <use style="fill:#262626;stroke:#262626;stroke-width:1.25;" x="50.025469" xlink:href="#m3a158243a1" y="11.136797"/>
      </g>
     </g>
     <g id="text_5">
      <!-- 0 -->
      <g style="fill:#262626;" transform="translate(34.408438 15.073594)scale(0.11 -0.11)">
       <use xlink:href="#ArialMT-30"/>
      </g>
     </g>
    </g>
    <g id="ytick_2">
     <g id="line2d_5">
      <g>
       <use style="fill:#262626;stroke:#262626;stroke-width:1.25;" x="50.025469" xlink:href="#m3a158243a1" y="54.624797"/>
      </g>
     </g>
     <g id="text_6">
      <!-- 50 -->
      <g style="fill:#262626;" transform="translate(28.291406 58.561594)scale(0.11 -0.11)">
       <use xlink:href="#ArialMT-35"/>
       <use x="55.615234" xlink:href="#ArialMT-30"/>
      </g>
     </g>
    </g>
    <g id="ytick_3">
     <g id="line2d_6">
      <g>
       <use style="fill:#262626;stroke:#262626;stroke-width:1.25;" x="50.025469" xlink:href="#m3a158243a1" y="98.112797"/>
      </g>
     </g>
     <g id="text_7">
      <!-- 100 -->
      <g style="fill:#262626;" transform="translate(22.174375 102.049594)scale(0.11 -0.11)">
       <defs>
        <path d="M 2384 0 
L 1822 0 
L 1822 3584 
Q 1619 3391 1289 3197 
Q 959 3003 697 2906 
L 697 3450 
Q 1169 3672 1522 3987 
Q 1875 4303 2022 4600 
L 2384 4600 
L 2384 0 
z
" id="ArialMT-31" transform="scale(0.015625)"/>
       </defs>
       <use xlink:href="#ArialMT-31"/>
       <use x="55.615234" xlink:href="#ArialMT-30"/>
       <use x="111.230469" xlink:href="#ArialMT-30"/>
      </g>
     </g>
    </g>
    <g id="ytick_4">
     <g id="line2d_7">
      <g>
       <use style="fill:#262626;stroke:#262626;stroke-width:1.25;" x="50.025469" xlink:href="#m3a158243a1" y="141.600797"/>
      </g>
     </g>
     <g id="text_8">
      <!-- 150 -->
      <g style="fill:#262626;" transform="translate(22.174375 145.537594)scale(0.11 -0.11)">
       <use xlink:href="#ArialMT-31"/>
       <use x="55.615234" xlink:href="#ArialMT-35"/>
       <use x="111.230469" xlink:href="#ArialMT-30"/>
      </g>
     </g>
    </g>
    <g id="ytick_5">
     <g id="line2d_8">
      <g>
       <use style="fill:#262626;stroke:#262626;stroke-width:1.25;" x="50.025469" xlink:href="#m3a158243a1" y="185.088797"/>
      </g>
     </g>
     <g id="text_9">
      <!-- 200 -->
      <g style="fill:#262626;" transform="translate(22.174375 189.025594)scale(0.11 -0.11)">
       <use xlink:href="#ArialMT-32"/>
       <use x="55.615234" xlink:href="#ArialMT-30"/>
       <use x="111.230469" xlink:href="#ArialMT-30"/>
      </g>
     </g>
    </g>
    <g id="ytick_6">
     <g id="line2d_9">
      <g>
       <use style="fill:#262626;stroke:#262626;stroke-width:1.25;" x="50.025469" xlink:href="#m3a158243a1" y="228.576797"/>
      </g>
     </g>
     <g id="text_10">
      <!-- 250 -->
      <g style="fill:#262626;" transform="translate(22.174375 232.513594)scale(0.11 -0.11)">
       <use xlink:href="#ArialMT-32"/>
       <use x="55.615234" xlink:href="#ArialMT-35"/>
       <use x="111.230469" xlink:href="#ArialMT-30"/>
      </g>
     </g>
    </g>
    <g id="text_11">
     <!-- PRES -->
     <g style="fill:#262626;" transform="translate(15.789375 136.196484)rotate(-90)scale(0.12 -0.12)">
      <defs>
       <path d="M 494 0 
L 494 4581 
L 2222 4581 
Q 2678 4581 2919 4538 
Q 3256 4481 3484 4323 
Q 3713 4166 3852 3881 
Q 3991 3597 3991 3256 
Q 3991 2672 3619 2267 
Q 3247 1863 2275 1863 
L 1100 1863 
L 1100 0 
L 494 0 
z
M 1100 2403 
L 2284 2403 
Q 2872 2403 3119 2622 
Q 3366 2841 3366 3238 
Q 3366 3525 3220 3729 
Q 3075 3934 2838 4000 
Q 2684 4041 2272 4041 
L 1100 4041 
L 1100 2403 
z
" id="ArialMT-50" transform="scale(0.015625)"/>
       <path d="M 503 0 
L 503 4581 
L 2534 4581 
Q 3147 4581 3465 4457 
Q 3784 4334 3975 4021 
Q 4166 3709 4166 3331 
Q 4166 2844 3850 2509 
Q 3534 2175 2875 2084 
Q 3116 1969 3241 1856 
Q 3506 1613 3744 1247 
L 4541 0 
L 3778 0 
L 3172 953 
Q 2906 1366 2734 1584 
Q 2563 1803 2427 1890 
Q 2291 1978 2150 2013 
Q 2047 2034 1813 2034 
L 1109 2034 
L 1109 0 
L 503 0 
z
M 1109 2559 
L 2413 2559 
Q 2828 2559 3062 2645 
Q 3297 2731 3419 2920 
Q 3541 3109 3541 3331 
Q 3541 3656 3305 3865 
Q 3069 4075 2559 4075 
L 1109 4075 
L 1109 2559 
z
" id="ArialMT-52" transform="scale(0.015625)"/>
       <path d="M 506 0 
L 506 4581 
L 3819 4581 
L 3819 4041 
L 1113 4041 
L 1113 2638 
L 3647 2638 
L 3647 2100 
L 1113 2100 
L 1113 541 
L 3925 541 
L 3925 0 
L 506 0 
z
" id="ArialMT-45" transform="scale(0.015625)"/>
       <path d="M 288 1472 
L 859 1522 
Q 900 1178 1048 958 
Q 1197 738 1509 602 
Q 1822 466 2213 466 
Q 2559 466 2825 569 
Q 3091 672 3220 851 
Q 3350 1031 3350 1244 
Q 3350 1459 3225 1620 
Q 3100 1781 2813 1891 
Q 2628 1963 1997 2114 
Q 1366 2266 1113 2400 
Q 784 2572 623 2826 
Q 463 3081 463 3397 
Q 463 3744 659 4045 
Q 856 4347 1234 4503 
Q 1613 4659 2075 4659 
Q 2584 4659 2973 4495 
Q 3363 4331 3572 4012 
Q 3781 3694 3797 3291 
L 3216 3247 
Q 3169 3681 2898 3903 
Q 2628 4125 2100 4125 
Q 1550 4125 1298 3923 
Q 1047 3722 1047 3438 
Q 1047 3191 1225 3031 
Q 1400 2872 2139 2705 
Q 2878 2538 3153 2413 
Q 3553 2228 3743 1945 
Q 3934 1663 3934 1294 
Q 3934 928 3725 604 
Q 3516 281 3123 101 
Q 2731 -78 2241 -78 
Q 1619 -78 1198 103 
Q 778 284 539 648 
Q 300 1013 288 1472 
z
" id="ArialMT-53" transform="scale(0.015625)"/>
      </defs>
      <use xlink:href="#ArialMT-50"/>
      <use x="66.699219" xlink:href="#ArialMT-52"/>
      <use x="138.916016" xlink:href="#ArialMT-45"/>
      <use x="205.615234" xlink:href="#ArialMT-53"/>
     </g>
    </g>
   </g>
   <g id="line2d_10">
    <path clip-path="url(#p2608996a6a)" d="M 137.333328 13.311197 
L 137.001638 15.485597 
L 137.161726 17.659997 
L 134.672995 19.834397 
L 133.259383 22.008797 
L 136.070121 24.183197 
L 135.657682 26.357597 
L 135.701231 28.531997 
L 134.927277 30.706397 
L 134.613094 32.880797 
L 134.583559 37.229597 
L 134.185919 39.403997 
L 133.461272 41.578397 
L 132.978349 43.752797 
L 131.425086 45.927197 
L 129.704192 48.101597 
L 132.051224 50.275997 
L 130.561752 52.450397 
L 130.119861 54.624797 
L 128.811773 56.799197 
L 126.839102 58.973597 
L 124.201475 61.147997 
L 119.973005 63.322397 
L 112.998119 65.496797 
L 103.377789 67.671197 
L 89.079128 69.845597 
L 99.413988 72.019997 
L 127.389079 74.194397 
L 139.630857 76.368797 
L 140.94311 78.543197 
L 144.661189 80.717597 
L 149.355068 82.891997 
L 153.553363 85.066397 
L 157.143467 87.240797 
L 160.229681 89.415197 
L 159.136813 91.589597 
L 160.203452 93.763997 
L 162.140831 95.938397 
L 172.799256 152.472797 
L 181.219045 198.135197 
L 186.473797 226.402397 
L 188.670852 269.890397 
L 188.892926 271.464766 
L 188.892926 271.464766 
" style="fill:none;stroke:#0173b2;stroke-linecap:round;stroke-width:1.5;"/>
   </g>
   <g id="line2d_11">
    <path clip-path="url(#p2608996a6a)" d="M 137.259044 15.485597 
L 138.168777 17.659997 
L 137.998936 19.834397 
L 133.192391 22.008797 
L 134.059565 24.183197 
L 136.136027 26.357597 
L 136.406374 28.531997 
L 136.44084 30.706397 
L 135.168034 32.880797 
L 134.61367 35.055197 
L 134.979606 37.229597 
L 135.557151 39.403997 
L 135.062465 41.578397 
L 135.268217 45.927197 
L 130.560572 48.101597 
L 130.202269 50.275997 
L 132.716764 52.450397 
L 131.903916 54.624797 
L 132.328418 56.799197 
L 131.062041 61.147997 
L 130.164674 63.322397 
L 126.212416 65.496797 
L 119.296393 67.671197 
L 89.971547 69.845597 
L 56.942824 72.019997 
L 73.273429 74.194397 
L 119.096369 76.368797 
L 134.258151 78.543197 
L 132.345442 80.717597 
L 135.530604 82.891997 
L 141.048781 85.066397 
L 146.224274 87.240797 
L 155.751674 89.415197 
L 159.935147 91.589597 
L 156.093104 93.763997 
L 158.34986 95.938397 
L 161.354513 98.112797 
L 162.981728 106.810397 
L 169.288349 139.426397 
L 170.065705 143.775197 
L 181.649833 206.832797 
L 185.042963 224.227997 
L 185.778872 226.402397 
L 186.254708 228.576797 
L 188.118768 267.715997 
L 188.008215 269.890397 
L 188.041306 271.464766 
L 188.041306 271.464766 
" style="fill:none;stroke:#de8f05;stroke-linecap:round;stroke-width:1.5;"/>
   </g>
   <g id="line2d_12"/>
   <g id="line2d_13"/>
   <g id="patch_3">
    <path d="M 50.025469 228.576797 
L 50.025469 11.136797 
" style="fill:none;stroke:#262626;stroke-linecap:square;stroke-linejoin:miter;stroke-width:1.25;"/>
   </g>
   <g id="patch_4">
    <path d="M 202.207287 228.576797 
L 202.207287 11.136797 
" style="fill:none;stroke:#262626;stroke-linecap:square;stroke-linejoin:miter;stroke-width:1.25;"/>
   </g>
   <g id="patch_5">
    <path d="M 50.025469 228.576797 
L 202.207287 228.576797 
" style="fill:none;stroke:#262626;stroke-linecap:square;stroke-linejoin:miter;stroke-width:1.25;"/>
   </g>
   <g id="patch_6">
    <path d="M 50.025469 11.136797 
L 202.207287 11.136797 
" style="fill:none;stroke:#262626;stroke-linecap:square;stroke-linejoin:miter;stroke-width:1.25;"/>
   </g>
   <g id="legend_1">
    <g id="patch_7">
     <path d="M 57.725469 223.076797 
L 188.28 223.076797 
Q 190.48 223.076797 190.48 220.876797 
L 190.48 190.716172 
Q 190.48 188.516172 188.28 188.516172 
L 57.725469 188.516172 
Q 55.525469 188.516172 55.525469 190.716172 
L 55.525469 220.876797 
Q 55.525469 223.076797 57.725469 223.076797 
z
" style="fill:#ffffff;opacity:0.8;stroke:#cccccc;stroke-linejoin:miter;"/>
    </g>
    <g id="line2d_14">
     <path d="M 59.925469 196.939766 
L 81.925469 196.939766 
" style="fill:none;stroke:#0173b2;stroke-linecap:round;stroke-width:1.5;"/>
    </g>
    <g id="line2d_15"/>
    <g id="text_12">
     <!-- DOXY -->
     <g style="fill:#262626;" transform="translate(90.725469 200.789766)scale(0.11 -0.11)">
      <use xlink:href="#ArialMT-44"/>
      <use x="72.216797" xlink:href="#ArialMT-4f"/>
      <use x="150" xlink:href="#ArialMT-58"/>
      <use x="216.699219" xlink:href="#ArialMT-59"/>
     </g>
    </g>
    <g id="line2d_16">
     <path d="M 59.925469 212.640547 
L 81.925469 212.640547 
" style="fill:none;stroke:#de8f05;stroke-linecap:round;stroke-width:1.5;"/>
    </g>
    <g id="line2d_17"/>
    <g id="text_13">
     <!-- DOXY_ADJUSTED -->
     <g style="fill:#262626;" transform="translate(90.725469 216.490547)scale(0.11 -0.11)">
      <defs>
       <path d="M -97 -1272 
L -97 -866 
L 3631 -866 
L 3631 -1272 
L -97 -1272 
z
" id="ArialMT-5f" transform="scale(0.015625)"/>
       <path d="M -9 0 
L 1750 4581 
L 2403 4581 
L 4278 0 
L 3588 0 
L 3053 1388 
L 1138 1388 
L 634 0 
L -9 0 
z
M 1313 1881 
L 2866 1881 
L 2388 3150 
Q 2169 3728 2063 4100 
Q 1975 3659 1816 3225 
L 1313 1881 
z
" id="ArialMT-41" transform="scale(0.015625)"/>
       <path d="M 184 1300 
L 731 1375 
Q 753 850 928 656 
Q 1103 463 1413 463 
Q 1641 463 1806 567 
Q 1972 672 2034 851 
Q 2097 1031 2097 1425 
L 2097 4581 
L 2703 4581 
L 2703 1459 
Q 2703 884 2564 568 
Q 2425 253 2123 87 
Q 1822 -78 1416 -78 
Q 813 -78 492 269 
Q 172 616 184 1300 
z
" id="ArialMT-4a" transform="scale(0.015625)"/>
       <path d="M 3500 4581 
L 4106 4581 
L 4106 1934 
Q 4106 1244 3950 837 
Q 3794 431 3386 176 
Q 2978 -78 2316 -78 
Q 1672 -78 1262 144 
Q 853 366 678 786 
Q 503 1206 503 1934 
L 503 4581 
L 1109 4581 
L 1109 1938 
Q 1109 1341 1220 1058 
Q 1331 775 1601 622 
Q 1872 469 2263 469 
Q 2931 469 3215 772 
Q 3500 1075 3500 1938 
L 3500 4581 
z
" id="ArialMT-55" transform="scale(0.015625)"/>
       <path d="M 1659 0 
L 1659 4041 
L 150 4041 
L 150 4581 
L 3781 4581 
L 3781 4041 
L 2266 4041 
L 2266 0 
L 1659 0 
z
" id="ArialMT-54" transform="scale(0.015625)"/>
      </defs>
      <use xlink:href="#ArialMT-44"/>
      <use x="72.216797" xlink:href="#ArialMT-4f"/>
      <use x="150" xlink:href="#ArialMT-58"/>
      <use x="216.699219" xlink:href="#ArialMT-59"/>
      <use x="283.398438" xlink:href="#ArialMT-5f"/>
      <use x="339.013672" xlink:href="#ArialMT-41"/>
      <use x="405.712891" xlink:href="#ArialMT-44"/>
      <use x="477.929688" xlink:href="#ArialMT-4a"/>
      <use x="527.929688" xlink:href="#ArialMT-55"/>
      <use x="600.146484" xlink:href="#ArialMT-53"/>
      <use x="666.845703" xlink:href="#ArialMT-54"/>
      <use x="727.929688" xlink:href="#ArialMT-45"/>
      <use x="794.628906" xlink:href="#ArialMT-44"/>
     </g>
    </g>
   </g>
  </g>
  <g id="axes_2">
   <g id="patch_8">
    <path d="M 232.643651 228.576797 
L 384.825469 228.576797 
L 384.825469 11.136797 
L 232.643651 11.136797 
z
" style="fill:#ffffff;"/>
   </g>
   <g id="matplotlib.axis_3">
    <g id="xtick_4">
     <g id="line2d_18">
      <g>
       <use style="fill:#262626;stroke:#262626;stroke-width:1.25;" x="271.006944" xlink:href="#m926b814aa9" y="228.576797"/>
      </g>
     </g>
     <g id="text_14">
      <!-- 0.0 -->
      <g style="fill:#262626;" transform="translate(263.361944 245.950391)scale(0.11 -0.11)">
       <defs>
        <path d="M 581 0 
L 581 641 
L 1222 641 
L 1222 0 
L 581 0 
z
" id="ArialMT-2e" transform="scale(0.015625)"/>
       </defs>
       <use xlink:href="#ArialMT-30"/>
       <use x="55.615234" xlink:href="#ArialMT-2e"/>
       <use x="83.398438" xlink:href="#ArialMT-30"/>
      </g>
     </g>
    </g>
    <g id="xtick_5">
     <g id="line2d_19">
      <g>
       <use style="fill:#262626;stroke:#262626;stroke-width:1.25;" x="313.417541" xlink:href="#m926b814aa9" y="228.576797"/>
      </g>
     </g>
     <g id="text_15">
      <!-- 2.5 -->
      <g style="fill:#262626;" transform="translate(305.772541 245.950391)scale(0.11 -0.11)">
       <use xlink:href="#ArialMT-32"/>
       <use x="55.615234" xlink:href="#ArialMT-2e"/>
       <use x="83.398438" xlink:href="#ArialMT-35"/>
      </g>
     </g>
    </g>
    <g id="xtick_6">
     <g id="line2d_20">
      <g>
       <use style="fill:#262626;stroke:#262626;stroke-width:1.25;" x="355.828139" xlink:href="#m926b814aa9" y="228.576797"/>
      </g>
     </g>
     <g id="text_16">
      <!-- 5.0 -->
      <g style="fill:#262626;" transform="translate(348.183139 245.950391)scale(0.11 -0.11)">
       <use xlink:href="#ArialMT-35"/>
       <use x="55.615234" xlink:href="#ArialMT-2e"/>
       <use x="83.398438" xlink:href="#ArialMT-30"/>
      </g>
     </g>
    </g>
    <g id="text_17">
     <!-- DOXY_DELTA -->
     <g style="fill:#262626;" transform="translate(269.939872 260.879766)scale(0.12 -0.12)">
      <defs>
       <path d="M 469 0 
L 469 4581 
L 1075 4581 
L 1075 541 
L 3331 541 
L 3331 0 
L 469 0 
z
" id="ArialMT-4c" transform="scale(0.015625)"/>
      </defs>
      <use xlink:href="#ArialMT-44"/>
      <use x="72.216797" xlink:href="#ArialMT-4f"/>
      <use x="150" xlink:href="#ArialMT-58"/>
      <use x="216.699219" xlink:href="#ArialMT-59"/>
      <use x="283.398438" xlink:href="#ArialMT-5f"/>
      <use x="339.013672" xlink:href="#ArialMT-44"/>
      <use x="411.230469" xlink:href="#ArialMT-45"/>
      <use x="477.929688" xlink:href="#ArialMT-4c"/>
      <use x="526.169922" xlink:href="#ArialMT-54"/>
      <use x="579.878906" xlink:href="#ArialMT-41"/>
     </g>
    </g>
   </g>
   <g id="matplotlib.axis_4">
    <g id="ytick_7">
     <g id="line2d_21">
      <g>
       <use style="fill:#262626;stroke:#262626;stroke-width:1.25;" x="232.643651" xlink:href="#m3a158243a1" y="11.136797"/>
      </g>
     </g>
    </g>
    <g id="ytick_8">
     <g id="line2d_22">
      <g>
       <use style="fill:#262626;stroke:#262626;stroke-width:1.25;" x="232.643651" xlink:href="#m3a158243a1" y="54.624797"/>
      </g>
     </g>
    </g>
    <g id="ytick_9">
     <g id="line2d_23">
      <g>
       <use style="fill:#262626;stroke:#262626;stroke-width:1.25;" x="232.643651" xlink:href="#m3a158243a1" y="98.112797"/>
      </g>
     </g>
    </g>
    <g id="ytick_10">
     <g id="line2d_24">
      <g>
       <use style="fill:#262626;stroke:#262626;stroke-width:1.25;" x="232.643651" xlink:href="#m3a158243a1" y="141.600797"/>
      </g>
     </g>
    </g>
    <g id="ytick_11">
     <g id="line2d_25">
      <g>
       <use style="fill:#262626;stroke:#262626;stroke-width:1.25;" x="232.643651" xlink:href="#m3a158243a1" y="185.088797"/>
      </g>
     </g>
    </g>
    <g id="ytick_12">
     <g id="line2d_26">
      <g>
       <use style="fill:#262626;stroke:#262626;stroke-width:1.25;" x="232.643651" xlink:href="#m3a158243a1" y="228.576797"/>
      </g>
     </g>
    </g>
   </g>
   <g id="line2d_27">
    <path clip-path="url(#pcc41c300a5)" d="M 270.498459 15.485597 
L 269.017596 17.659997 
L 264.436812 19.834397 
L 271.139281 22.008797 
L 274.978639 24.183197 
L 270.062011 26.357597 
L 269.61399 28.531997 
L 268.017019 30.706397 
L 269.910702 32.880797 
L 270.892726 35.055197 
L 270.224584 37.229597 
L 268.298182 39.403997 
L 267.843912 41.578397 
L 266.581776 43.752797 
L 263.415144 45.927197 
L 269.315233 48.101597 
L 274.659408 50.275997 
L 266.749888 52.450397 
L 267.482684 54.624797 
L 264.060089 56.799197 
L 261.421548 58.973597 
L 257.454441 61.147997 
L 250.874112 63.322397 
L 244.90315 65.496797 
L 239.561006 67.671197 
L 269.24404 69.845597 
L 354.905356 72.019997 
L 377.908113 74.194397 
L 311.571196 76.368797 
L 284.21255 78.543197 
L 295.335724 80.717597 
L 298.316075 82.891997 
L 295.708754 85.066397 
L 292.576942 87.240797 
L 279.852892 89.415197 
L 269.429898 91.589597 
L 279.126611 93.763997 
L 278.495707 95.938397 
L 273.378566 98.112797 
L 273.437474 102.461597 
L 273.406818 137.251997 
L 273.164907 141.600797 
L 273.279868 143.775197 
L 273.312308 185.088797 
L 273.404339 189.437597 
L 273.403675 222.053597 
L 273.196832 224.227997 
L 271.651524 228.576797 
L 271.781414 267.715997 
L 272.68925 271.464766 
L 272.68925 271.464766 
" style="fill:none;stroke:#0173b2;stroke-linecap:round;stroke-width:1.5;"/>
   </g>
   <g id="patch_9">
    <path d="M 232.643651 228.576797 
L 232.643651 11.136797 
" style="fill:none;stroke:#262626;stroke-linecap:square;stroke-linejoin:miter;stroke-width:1.25;"/>
   </g>
   <g id="patch_10">
    <path d="M 384.825469 228.576797 
L 384.825469 11.136797 
" style="fill:none;stroke:#262626;stroke-linecap:square;stroke-linejoin:miter;stroke-width:1.25;"/>
   </g>
   <g id="patch_11">
    <path d="M 232.643651 228.576797 
L 384.825469 228.576797 
" style="fill:none;stroke:#262626;stroke-linecap:square;stroke-linejoin:miter;stroke-width:1.25;"/>
   </g>
   <g id="patch_12">
    <path d="M 232.643651 11.136797 
L 384.825469 11.136797 
" style="fill:none;stroke:#262626;stroke-linecap:square;stroke-linejoin:miter;stroke-width:1.25;"/>
   </g>
  </g>
 </g>
 <defs>
  <clipPath id="p2608996a6a">
   <rect height="217.44" width="152.181818" x="50.025469" y="11.136797"/>
  </clipPath>
  <clipPath id="pcc41c300a5">
   <rect height="217.44" width="152.181818" x="232.643651" y="11.136797"/>
  </clipPath>
 </defs>
</svg>
